name ./resultDataOpenSim/trcMotMarkerGrf/sub09/grf-13-01.mot
datacolumns 19
datarows 12
range 1.60800000 1.65200000
endheader

                time	     ground_force_vx	     ground_force_vy	     ground_force_vz	     ground_force_px	     ground_force_py	     ground_force_pz	   l_ground_force_vx	   l_ground_force_vy	   l_ground_force_vz	   l_ground_force_px	   l_ground_force_py	   l_ground_force_pz	     ground_torque_x	     ground_torque_y	     ground_torque_z	   l_ground_torque_x	   l_ground_torque_y	   l_ground_torque_z	
          1.60800000	        -26.10101725	        448.77686472	         -8.59934286	          1.01590313	          0.00000000	          0.09177145	          0.00000000	          0.00000000	          0.00000000	          0.00000000	          0.00000000	          0.00000000	          0.00000000	          0.76943196	          0.00000000	          0.00000000	          0.00000000	          0.00000000	
          1.61200000	        -23.95877287	        449.15645128	        -10.34276899	          1.01723088	          0.00000000	          0.09233066	          0.00000000	          0.00000000	          0.00000000	          0.00000000	          0.00000000	          0.00000000	          0.00000000	          0.77739268	          0.00000000	          0.00000000	          0.00000000	          0.00000000	
          1.61600000	        -20.47256196	        449.69188570	        -12.36291548	          1.01825437	          0.00000000	          0.09289764	          0.00000000	          0.00000000	          0.00000000	          0.00000000	          0.00000000	          0.00000000	          0.00000000	          0.71586751	          0.00000000	          0.00000000	          0.00000000	          0.00000000	
          1.62000000	        -16.36607258	        450.43851532	        -14.27127868	          1.01908486	          0.00000000	          0.09344260	          0.00000000	          0.00000000	          0.00000000	          0.00000000	          0.00000000	          0.00000000	          0.00000000	          0.63381747	          0.00000000	          0.00000000	          0.00000000	          0.00000000	
          1.62400000	        -12.48009434	        451.48869449	        -15.72514267	          1.01983655	          0.00000000	          0.09392189	          0.00000000	          0.00000000	          0.00000000	          0.00000000	          0.00000000	          0.00000000	          0.00000000	          0.58148724	          0.00000000	          0.00000000	          0.00000000	          0.00000000	
          1.62800000	         -9.53852922	        452.93997191	        -16.47799037	          1.02061158	          0.00000000	          0.09429346	          0.00000000	          0.00000000	          0.00000000	          0.00000000	          0.00000000	          0.00000000	          0.00000000	          0.59897448	          0.00000000	          0.00000000	          0.00000000	          0.00000000	
          1.63200000	         -7.96677686	        454.84868151	        -16.39963277	          1.02147278	          0.00000000	          0.09453531	          0.00000000	          0.00000000	          0.00000000	          0.00000000	          0.00000000	          0.00000000	          0.00000000	          0.70944502	          0.00000000	          0.00000000	          0.00000000	          0.00000000	
          1.63600000	         -7.80810750	        457.20130154	        -15.48044485	          1.02242639	          0.00000000	          0.09464436	          0.00000000	          0.00000000	          0.00000000	          0.00000000	          0.00000000	          0.00000000	          0.00000000	          0.91659777	          0.00000000	          0.00000000	          0.00000000	          0.00000000	
          1.64000000	         -8.73997217	        459.91785567	        -13.82854795	          1.02345640	          0.00000000	          0.09463511	          0.00000000	          0.00000000	          0.00000000	          0.00000000	          0.00000000	          0.00000000	          0.00000000	          1.20502795	          0.00000000	          0.00000000	          0.00000000	          0.00000000	
          1.64400000	        -10.16776767	        462.87586607	        -11.66198090	          1.02450645	          0.00000000	          0.09454074	          0.00000000	          0.00000000	          0.00000000	          0.00000000	          0.00000000	          0.00000000	          0.00000000	          1.54292676	          0.00000000	          0.00000000	          0.00000000	          0.00000000	
          1.64800000	        -11.37716639	        465.93644558	         -9.28780753	          1.02548519	          0.00000000	          0.09440212	          0.00000000	          0.00000000	          0.00000000	          0.00000000	          0.00000000	          0.00000000	          0.00000000	          1.88764095	          0.00000000	          0.00000000	          0.00000000	          0.00000000	
          1.65200000	        -11.72239230	        468.96658608	         -7.05898324	          1.02630576	          0.00000000	          0.09426279	          0.00000000	          0.00000000	          0.00000000	          0.00000000	          0.00000000	          0.00000000	          0.00000000	          2.19445686	          0.00000000	          0.00000000	          0.00000000	          0.00000000	
